<svg id="Capa_1" data-name="Capa 1" xmlns="http://www.w3.org/2000/svg" viewBox="0 0 612 555.45"><title>cart-icon</title><path d="M612,140.92a22.71,22.71,0,0,0-22.64-22.64H507.47a22.64,22.64,0,0,0-21.89,16.6L393.14,469.2H141.07L57.3,276.76H336.54a22.64,22.64,0,1,0,0-45.28H22.59A22.48,22.48,0,0,0,3.72,241.67a22.91,22.91,0,0,0-1.89,21.51L105.23,500.9A22.69,22.69,0,0,0,126,514.49H410.12A22.64,22.64,0,0,0,432,497.88l92.45-334.33h64.9A22.71,22.71,0,0,0,612,140.92Z" transform="translate(0 -118.28)"/><path d="M482.95,622.41a51.32,51.32,0,1,0-51.32,51.32A51.37,51.37,0,0,0,482.95,622.41Z" transform="translate(0 -118.28)"/><path d="M161.83,625.8c1.89-27.92-19.24-52.83-47.55-54.71s-52.83,19.62-54.71,47.55C58.81,632.59,63,645.8,72,656a51.22,51.22,0,0,0,35.09,17.74h3.77C137.68,673.72,159.94,652.59,161.83,625.8Z" transform="translate(0 -118.28)"/></svg>