<svg id="Layer_1" data-name="Layer 1" xmlns="http://www.w3.org/2000/svg" viewBox="0 0 22.65 22.67"><defs><style>.cls-1{fill:#888;}</style></defs><title>g-plus-icon</title><path class="cls-1" d="M610.65,592.39v1.54h-3.08V597H606v-3.08h-3.08v-1.54H606v-3.08h1.54v3.08h3.08Zm-9.73-1.82h-1.75a4.22,4.22,0,0,1,1.9,3.78,4.54,4.54,0,0,1-2,3.57c-1.13.88-1.34,1.25-1.34,2s1.35,1.59,2,2.06c2.16,1.62,2.59,2.64,2.59,4.66,0,2.52-2.72,5-7.14,5-3.89,0-7.16-1.58-7.16-4.1s2.72-5.24,6.6-5.24h1.21a2.34,2.34,0,0,1-1-1.74,2.83,2.83,0,0,1,.36-1.3l-0.65,0a4.8,4.8,0,0,1-5-5.05c0-2.75,2.82-5.25,6.21-5.25h6.68Zm-3.7,12.83a5.86,5.86,0,0,0-1.74-.28c-2.68,0-5,1.7-5,3.7s1.94,3.74,4.62,3.74c3.77,0,5.09-1.59,5.09-3.64a3.18,3.18,0,0,0-.09-0.72c-0.3-1.15-1.47-1.79-2.93-2.8h0Zm1.16-9c-0.31-2.37-1.85-4.31-3.65-4.36s-3,1.75-2.7,4.12a4.37,4.37,0,0,0,3.82,4.07c1.8,0.05,2.83-1.47,2.52-3.83h0Zm0,0" transform="translate(-588 -589)"/></svg>