<svg id="Layer_1" data-name="Layer 1" xmlns="http://www.w3.org/2000/svg" viewBox="0 0 43 43"><defs><style>.cls-1{fill:#888;}</style></defs><title>instagram-icon</title><path class="cls-1" d="M619.58,598.35H587.42a5.42,5.42,0,0,0-5.42,5.42v32.16a5.43,5.43,0,0,0,5.42,5.42h32.16a5.43,5.43,0,0,0,5.42-5.42V603.77a5.42,5.42,0,0,0-5.42-5.42h0Zm-16.08,15.2a6.3,6.3,0,1,1-6.3,6.3,6.31,6.31,0,0,1,6.3-6.3h0ZM620,633.63a2.88,2.88,0,0,1-2.89,2.71H590a3,3,0,0,1-3-2.71V620.08a3,3,0,0,1,3-2.73h1.51a1,1,0,0,1,1,1.12,10.76,10.76,0,0,0-.09,1.38,11.1,11.1,0,0,0,22.2,0,10.76,10.76,0,0,0-.09-1.38,1,1,0,0,1,.24-0.79,1,1,0,0,1,.75-0.34h1.62a2.88,2.88,0,0,1,2.89,2.73v13.55Zm0-25h0a2.71,2.71,0,0,1-2.71,2.71h-2.58a2.71,2.71,0,0,1-2.71-2.71v-2.58a2.71,2.71,0,0,1,2.71-2.71h2.58a2.71,2.71,0,0,1,2.71,2.71v2.58Zm0,0" transform="translate(-582 -598.35)"/></svg>