<svg id="Layer_1" data-name="Layer 1" xmlns="http://www.w3.org/2000/svg" viewBox="0 0 19.17 24.76"><defs><style>.cls-1{fill:#888;}</style></defs><title>pinterest-icon</title><path class="cls-1" d="M609.17,596.15c0,5.58-3.11,9.75-7.68,9.75a4.09,4.09,0,0,1-3.48-1.77s-0.83,3.28-1,3.91a15.15,15.15,0,0,1-2.57,4.65,0.19,0.19,0,0,1-.34-0.08,16,16,0,0,1,0-5.41l1.83-7.75a5.46,5.46,0,0,1-.45-2.25c0-2.11,1.22-3.68,2.75-3.68a1.9,1.9,0,0,1,1.92,2.13c0,1.3-.83,3.25-1.26,5a2.2,2.2,0,0,0,2.25,2.74c2.7,0,4.51-3.46,4.51-7.56,0-3.12-2.1-5.45-5.92-5.45a6.74,6.74,0,0,0-7,6.81,4.08,4.08,0,0,0,.94,2.79,0.7,0.7,0,0,1,.2.8c-0.07.26-.22,0.89-0.29,1.14a0.49,0.49,0,0,1-.71.36c-2-.81-2.91-3-2.91-5.43,0-4,3.41-8.89,10.16-8.89,5.43,0,9,3.93,9,8.15h0Zm0,0" transform="translate(-590 -588)"/></svg>