<svg id="Capa_1" data-name="Capa 1" xmlns="http://www.w3.org/2000/svg" viewBox="0 0 593.78 612"><title>search-icon</title><path d="M421.54,489.51c39.12-42.36,63.53-99.07,63.53-161.53,0-131-106.61-238-238-238s-238,107-238,238,106.61,238,238,238a236.8,236.8,0,0,0,142.5-47.38l177,177A21.26,21.26,0,0,0,581.62,702a20.66,20.66,0,0,0,15.08-6.46c8.26-8.26,8.26-21.9,0-30.51ZM52.18,328c0-107.32,87.22-194.91,194.91-194.91C354.41,133.07,442,220.3,442,328A194.86,194.86,0,0,1,247.09,522.89C139.41,522.89,52.18,435.31,52.18,328Z" transform="translate(-9.11 -90)"/></svg>