<svg id="Layer_1" data-name="Layer 1" xmlns="http://www.w3.org/2000/svg" viewBox="0 0 128 128"><title>user icon</title><g id="User"><path d="M118.95,92c-3.78-3.78-10.1-7.07-20.07-12.06-5-2.51-13.39-6.69-15.41-8.6C92,60.91,96.89,49.13,96.89,38.81c0-7,0-15.71-3.92-23.48C89.44,8.34,81.54,0,64,0S38.56,8.34,35,15.33c-3.92,7.77-3.92,16.48-3.92,23.48,0,10.32,4.92,22.1,13.42,32.53-2,1.92-10.39,6.1-15.42,8.6C19.15,84.94,12.83,88.23,9,92c-8.37,8.38-9,22.43-9,25.16A10.67,10.67,0,0,0,10.66,128H117.33A10.67,10.67,0,0,0,128,117.17C128,114.44,127.32,100.39,118.95,92Zm0.29,27.19a2.67,2.67,0,0,1-1.9.8H10.66a2.67,2.67,0,0,1-1.9-.8A2.7,2.7,0,0,1,8,117.29C8,116,8.39,104,14.7,97.67c2.92-2.91,9-6.07,18-10.56,9.58-4.79,14.89-7.64,17.33-9.95l5.4-5.11L50.73,66.3c-7.38-9.07-11.62-19.09-11.62-27.48,0-6.47,0-13.81,3.06-19.87C45.84,11.68,53.18,8,64,8s18.16,3.68,21.82,10.93c3.06,6.07,3.06,13.41,3.06,19.88,0,8.39-4.24,18.41-11.63,27.48l-4.69,5.76,5.4,5.1c2.44,2.31,7.75,5.16,17.33,9.95,9,4.48,15.07,7.64,18,10.56,5.14,5.14,6.63,14.75,6.7,19.62A2.67,2.67,0,0,1,119.24,119.2Z" transform="translate(0)"/></g></svg>